<?xml version="1.0" encoding="UTF-8" standalone="no"?>
    <svg viewBox="0 0 800 400" xmlns="http://www.w3.org/2000/svg">
    <defs>
        <linearGradient id="score-gradient" x1="0%" y1="0%" x2="100%" y1="0%">
            <stop offset="0%" style="stop-color:#ef4444"/>
            <stop offset="100%" style="stop-color:#22c55e"/>
        </linearGradient>
    </defs>
        <circle cx="140.0" cy="110.0" r="50.0" fill="none" stroke="#e5e7eb" stroke-width="8"/>
        <path d="M 140.0 110.0 L 90.0 110.0 A 50.0 50.0 0 0 1 134.54 115.46000000000001 Z" fill="url(#score-gradient)" opacity="0.8"/>
        <text x="140.0" y="100.0" text-anchor="middle" style="font: bold 14px sans-serif;">v2ray_free_conf</text>
        <text x="140.0" y="125.0" text-anchor="middle" style="font: bold 16px sans-serif;">89.1%</text>
        <text x="140.0" y="145.0" text-anchor="middle" style="font: 12px sans-serif;">Success: 100.0%</text>
        
        <circle cx="284.0" cy="110.0" r="50.0" fill="none" stroke="#e5e7eb" stroke-width="8"/>
        <path d="M 284.0 110.0 L 234.0 110.0 A 50.0 50.0 0 0 1 241.5 152.5 Z" fill="url(#score-gradient)" opacity="0.8"/>
        <text x="284.0" y="100.0" text-anchor="middle" style="font: bold 14px sans-serif;">v2rayvpno</text>
        <text x="284.0" y="125.0" text-anchor="middle" style="font: bold 16px sans-serif;">15.0%</text>
        <text x="284.0" y="145.0" text-anchor="middle" style="font: 12px sans-serif;">Success: 0.0%</text>
        
        <circle cx="428.0" cy="110.0" r="50.0" fill="none" stroke="#e5e7eb" stroke-width="8"/>
        <path d="M 428.0 110.0 L 378.0 110.0 A 50.0 50.0 0 0 1 378.0 160.0 Z" fill="url(#score-gradient)" opacity="0.8"/>
        <text x="428.0" y="100.0" text-anchor="middle" style="font: bold 14px sans-serif;">ZibaNabz</text>
        <text x="428.0" y="125.0" text-anchor="middle" style="font: bold 16px sans-serif;">0.0%</text>
        <text x="428.0" y="145.0" text-anchor="middle" style="font: 12px sans-serif;">Success: 0.0%</text>
        
        <circle cx="572.0" cy="110.0" r="50.0" fill="none" stroke="#e5e7eb" stroke-width="8"/>
        <path d="M 572.0 110.0 L 522.0 110.0 A 50.0 50.0 0 0 1 565.91 116.09 Z" fill="url(#score-gradient)" opacity="0.8"/>
        <text x="572.0" y="100.0" text-anchor="middle" style="font: bold 14px sans-serif;">configV2rayForFree</text>
        <text x="572.0" y="125.0" text-anchor="middle" style="font: bold 16px sans-serif;">87.8%</text>
        <text x="572.0" y="145.0" text-anchor="middle" style="font: 12px sans-serif;">Success: 100.0%</text>
        
        <circle cx="716.0" cy="110.0" r="50.0" fill="none" stroke="#e5e7eb" stroke-width="8"/>
        <path d="M 716.0 110.0 L 666.0 110.0 A 50.0 50.0 0 0 1 673.5 152.5 Z" fill="url(#score-gradient)" opacity="0.8"/>
        <text x="716.0" y="100.0" text-anchor="middle" style="font: bold 14px sans-serif;">v2rayngvpn</text>
        <text x="716.0" y="125.0" text-anchor="middle" style="font: bold 16px sans-serif;">15.0%</text>
        <text x="716.0" y="145.0" text-anchor="middle" style="font: 12px sans-serif;">Success: 0.0%</text>
        
        <circle cx="140.0" cy="270.0" r="50.0" fill="none" stroke="#e5e7eb" stroke-width="8"/>
        <path d="M 140.0 270.0 L 90.0 270.0 A 50.0 50.0 0 0 1 97.5 312.5 Z" fill="url(#score-gradient)" opacity="0.8"/>
        <text x="140.0" y="260.0" text-anchor="middle" style="font: bold 14px sans-serif;">SvnV2ray</text>
        <text x="140.0" y="285.0" text-anchor="middle" style="font: bold 16px sans-serif;">15.0%</text>
        <text x="140.0" y="305.0" text-anchor="middle" style="font: 12px sans-serif;">Success: 0.0%</text>
        
        <circle cx="284.0" cy="270.0" r="50.0" fill="none" stroke="#e5e7eb" stroke-width="8"/>
        <path d="M 284.0 270.0 L 234.0 270.0 A 50.0 50.0 0 0 1 241.5 312.5 Z" fill="url(#score-gradient)" opacity="0.8"/>
        <text x="284.0" y="260.0" text-anchor="middle" style="font: bold 14px sans-serif;">RadixVPN</text>
        <text x="284.0" y="285.0" text-anchor="middle" style="font: bold 16px sans-serif;">15.0%</text>
        <text x="284.0" y="305.0" text-anchor="middle" style="font: 12px sans-serif;">Success: 0.0%</text>
        
        <circle cx="428.0" cy="270.0" r="50.0" fill="none" stroke="#e5e7eb" stroke-width="8"/>
        <path d="M 428.0 270.0 L 378.0 270.0 A 50.0 50.0 0 0 1 423.415 274.585 Z" fill="url(#score-gradient)" opacity="0.8"/>
        <text x="428.0" y="260.0" text-anchor="middle" style="font: bold 14px sans-serif;">PrivateVPNs</text>
        <text x="428.0" y="285.0" text-anchor="middle" style="font: bold 16px sans-serif;">90.8%</text>
        <text x="428.0" y="305.0" text-anchor="middle" style="font: 12px sans-serif;">Success: 100.0%</text>
        
        <circle cx="572.0" cy="270.0" r="50.0" fill="none" stroke="#e5e7eb" stroke-width="8"/>
        <path d="M 572.0 270.0 L 522.0 270.0 A 50.0 50.0 0 0 1 529.5 312.5 Z" fill="url(#score-gradient)" opacity="0.8"/>
        <text x="572.0" y="260.0" text-anchor="middle" style="font: bold 14px sans-serif;">VlessConfig</text>
        <text x="572.0" y="285.0" text-anchor="middle" style="font: bold 16px sans-serif;">15.0%</text>
        <text x="572.0" y="305.0" text-anchor="middle" style="font: 12px sans-serif;">Success: 0.0%</text>
        
        <circle cx="716.0" cy="270.0" r="50.0" fill="none" stroke="#e5e7eb" stroke-width="8"/>
        <path d="M 716.0 270.0 L 666.0 270.0 A 50.0 50.0 0 0 1 713.5 272.5 Z" fill="url(#score-gradient)" opacity="0.8"/>
        <text x="716.0" y="260.0" text-anchor="middle" style="font: bold 14px sans-serif;">freewireguard</text>
        <text x="716.0" y="285.0" text-anchor="middle" style="font: bold 16px sans-serif;">95.0%</text>
        <text x="716.0" y="305.0" text-anchor="middle" style="font: 12px sans-serif;">Success: 100.0%</text>
        </svg>