<?xml version="1.0" encoding="UTF-8"?>
    <svg width="800" height="900" version="1.1" xmlns="http://www.w3.org/2000/svg">
    <style>
        .row { font: 14px Arial; fill: #64748b; }
        .score { font: bold 14px Arial; fill: #64748b; }
    </style>
    <text x="400" y="40" text-anchor="middle" font-size="20px" font-weight="bold" fill="#64748b">Channel Performance Overview</text><rect x="150" y="80" width="500" height="30" fill="#eee" rx="5"/><rect x="150" y="80" width="388.29999999999995" height="30" fill="#22c55e" rx="5"/>
        <text x="140" y="100" text-anchor="end" class="row">configs.txt</text>
        <text x="660" y="100" text-anchor="start" class="score">77.7% (S:100%)</text><rect x="150" y="130" width="500" height="30" fill="#eee" rx="5"/><rect x="150" y="130" width="376.70000000000005" height="30" fill="#22c55e" rx="5"/>
        <text x="140" y="150" text-anchor="end" class="row">sub_1.txt</text>
        <text x="660" y="150" text-anchor="start" class="score">75.3% (S:100%)</text><rect x="150" y="180" width="500" height="30" fill="#eee" rx="5"/><rect x="150" y="180" width="383.40000000000003" height="30" fill="#22c55e" rx="5"/>
        <text x="140" y="200" text-anchor="end" class="row">FreeV2rays</text>
        <text x="660" y="200" text-anchor="start" class="score">76.7% (S:100%)</text><rect x="150" y="230" width="500" height="30" fill="#eee" rx="5"/><rect x="150" y="230" width="485.95" height="30" fill="#22c55e" rx="5"/>
        <text x="140" y="250" text-anchor="end" class="row">v2ray_free_conf</text>
        <text x="660" y="250" text-anchor="start" class="score">97.2% (S:100%)</text><rect x="150" y="280" width="500" height="30" fill="#eee" rx="5"/><rect x="150" y="280" width="498.8" height="30" fill="#22c55e" rx="5"/>
        <text x="140" y="300" text-anchor="end" class="row">PrivateVPNs</text>
        <text x="660" y="300" text-anchor="start" class="score">99.8% (S:100%)</text><rect x="150" y="330" width="500" height="30" fill="#eee" rx="5"/><rect x="150" y="330" width="418.6" height="30" fill="#22c55e" rx="5"/>
        <text x="140" y="350" text-anchor="end" class="row">IP_CF_Config</text>
        <text x="660" y="350" text-anchor="start" class="score">83.7% (S:100%)</text><rect x="150" y="380" width="500" height="30" fill="#eee" rx="5"/><rect x="150" y="380" width="432.55" height="30" fill="#22c55e" rx="5"/>
        <text x="140" y="400" text-anchor="end" class="row">shadowproxy66</text>
        <text x="660" y="400" text-anchor="start" class="score">86.5% (S:100%)</text><rect x="150" y="430" width="500" height="30" fill="#eee" rx="5"/><rect x="150" y="430" width="435.5" height="30" fill="#22c55e" rx="5"/>
        <text x="140" y="450" text-anchor="end" class="row">prrofile_purple</text>
        <text x="660" y="450" text-anchor="start" class="score">87.1% (S:100%)</text><rect x="150" y="480" width="500" height="30" fill="#eee" rx="5"/><rect x="150" y="480" width="461.70000000000005" height="30" fill="#22c55e" rx="5"/>
        <text x="140" y="500" text-anchor="end" class="row">proxy_shadosocks</text>
        <text x="660" y="500" text-anchor="start" class="score">92.3% (S:100%)</text><rect x="150" y="530" width="500" height="30" fill="#eee" rx="5"/><rect x="150" y="530" width="475.25" height="30" fill="#22c55e" rx="5"/>
        <text x="140" y="550" text-anchor="end" class="row">meli_proxyy</text>
        <text x="660" y="550" text-anchor="start" class="score">95.0% (S:100%)</text><rect x="150" y="580" width="500" height="30" fill="#eee" rx="5"/><rect x="150" y="580" width="498.8" height="30" fill="#22c55e" rx="5"/>
        <text x="140" y="600" text-anchor="end" class="row">DirectVPN</text>
        <text x="660" y="600" text-anchor="start" class="score">99.8% (S:100%)</text><rect x="150" y="630" width="500" height="30" fill="#eee" rx="5"/><rect x="150" y="630" width="431.65" height="30" fill="#22c55e" rx="5"/>
        <text x="140" y="650" text-anchor="end" class="row">VmessProtocol</text>
        <text x="660" y="650" text-anchor="start" class="score">86.3% (S:100%)</text><rect x="150" y="680" width="500" height="30" fill="#eee" rx="5"/><rect x="150" y="680" width="471.45000000000005" height="30" fill="#22c55e" rx="5"/>
        <text x="140" y="700" text-anchor="end" class="row">ViProxys</text>
        <text x="660" y="700" text-anchor="start" class="score">94.3% (S:100%)</text><rect x="150" y="730" width="500" height="30" fill="#eee" rx="5"/><rect x="150" y="730" width="455.45000000000005" height="30" fill="#22c55e" rx="5"/>
        <text x="140" y="750" text-anchor="end" class="row">heyatserver</text>
        <text x="660" y="750" text-anchor="start" class="score">91.1% (S:100%)</text><rect x="150" y="780" width="500" height="30" fill="#eee" rx="5"/><rect x="150" y="780" width="436.45000000000005" height="30" fill="#22c55e" rx="5"/>
        <text x="140" y="800" text-anchor="end" class="row">vpnfail_vless</text>
        <text x="660" y="800" text-anchor="start" class="score">87.3% (S:100%)</text><rect x="150" y="830" width="500" height="30" fill="#eee" rx="5"/><rect x="150" y="830" width="427.9" height="30" fill="#22c55e" rx="5"/>
        <text x="140" y="850" text-anchor="end" class="row">DailyV2RY</text>
        <text x="660" y="850" text-anchor="start" class="score">85.6% (S:100%)</text></svg>