<?xml version="1.0" encoding="UTF-8"?>
    <svg width="800" height="1150" version="1.1" xmlns="http://www.w3.org/2000/svg">
    <style>
        .row { font: 14px Arial; fill: #64748b; }
        .score { font: bold 14px Arial; fill: #64748b; }
    </style>
    <text x="400" y="40" text-anchor="middle" font-size="20px" font-weight="bold" fill="#64748b">Channel Performance Overview</text><rect x="150" y="80" width="500" height="30" fill="#eee" rx="5"/><rect x="150" y="80" width="499.20000000000005" height="30" fill="#22c55e" rx="5"/>
        <text x="140" y="100" text-anchor="end" class="row">wireguard_configs.txt</text>
        <text x="660" y="100" text-anchor="start" class="score">99.8% (S:100%)</text><rect x="150" y="130" width="500" height="30" fill="#eee" rx="5"/><rect x="150" y="130" width="0.0" height="30" fill="#ef4444" rx="5"/>
        <text x="140" y="150" text-anchor="end" class="row">configs.txt</text>
        <text x="660" y="150" text-anchor="start" class="score">0.0% (S:0%)</text><rect x="150" y="180" width="500" height="30" fill="#eee" rx="5"/><rect x="150" y="180" width="364.3" height="30" fill="#22c55e" rx="5"/>
        <text x="140" y="200" text-anchor="end" class="row">mix.txt</text>
        <text x="660" y="200" text-anchor="start" class="score">72.9% (S:100%)</text><rect x="150" y="230" width="500" height="30" fill="#eee" rx="5"/><rect x="150" y="230" width="357.04999999999995" height="30" fill="#22c55e" rx="5"/>
        <text x="140" y="250" text-anchor="end" class="row">mix.txt</text>
        <text x="660" y="250" text-anchor="start" class="score">71.4% (S:100%)</text><rect x="150" y="280" width="500" height="30" fill="#eee" rx="5"/><rect x="150" y="280" width="75.0" height="30" fill="#ef4444" rx="5"/>
        <text x="140" y="300" text-anchor="end" class="row">sub_merge.txt</text>
        <text x="660" y="300" text-anchor="start" class="score">15.0% (S:0%)</text><rect x="150" y="330" width="500" height="30" fill="#eee" rx="5"/><rect x="150" y="330" width="75.0" height="30" fill="#ef4444" rx="5"/>
        <text x="140" y="350" text-anchor="end" class="row">v2ray_free_conf</text>
        <text x="660" y="350" text-anchor="start" class="score">15.0% (S:0%)</text><rect x="150" y="380" width="500" height="30" fill="#eee" rx="5"/><rect x="150" y="380" width="75.0" height="30" fill="#ef4444" rx="5"/>
        <text x="140" y="400" text-anchor="end" class="row">PrivateVPNs</text>
        <text x="660" y="400" text-anchor="start" class="score">15.0% (S:0%)</text><rect x="150" y="430" width="500" height="30" fill="#eee" rx="5"/><rect x="150" y="430" width="75.0" height="30" fill="#ef4444" rx="5"/>
        <text x="140" y="450" text-anchor="end" class="row">v2Source</text>
        <text x="660" y="450" text-anchor="start" class="score">15.0% (S:0%)</text><rect x="150" y="480" width="500" height="30" fill="#eee" rx="5"/><rect x="150" y="480" width="0.0" height="30" fill="#ef4444" rx="5"/>
        <text x="140" y="500" text-anchor="end" class="row">IP_CF_Config</text>
        <text x="660" y="500" text-anchor="start" class="score">0.0% (S:0%)</text><rect x="150" y="530" width="500" height="30" fill="#eee" rx="5"/><rect x="150" y="530" width="75.0" height="30" fill="#ef4444" rx="5"/>
        <text x="140" y="550" text-anchor="end" class="row">oneclickvpnkeys</text>
        <text x="660" y="550" text-anchor="start" class="score">15.0% (S:0%)</text><rect x="150" y="580" width="500" height="30" fill="#eee" rx="5"/><rect x="150" y="580" width="75.0" height="30" fill="#ef4444" rx="5"/>
        <text x="140" y="600" text-anchor="end" class="row">ShadowProxy66</text>
        <text x="660" y="600" text-anchor="start" class="score">15.0% (S:0%)</text><rect x="150" y="630" width="500" height="30" fill="#eee" rx="5"/><rect x="150" y="630" width="75.0" height="30" fill="#ef4444" rx="5"/>
        <text x="140" y="650" text-anchor="end" class="row">OutlineReleasedKey</text>
        <text x="660" y="650" text-anchor="start" class="score">15.0% (S:0%)</text><rect x="150" y="680" width="500" height="30" fill="#eee" rx="5"/><rect x="150" y="680" width="75.0" height="30" fill="#ef4444" rx="5"/>
        <text x="140" y="700" text-anchor="end" class="row">GetConfigIR</text>
        <text x="660" y="700" text-anchor="start" class="score">15.0% (S:0%)</text><rect x="150" y="730" width="500" height="30" fill="#eee" rx="5"/><rect x="150" y="730" width="75.0" height="30" fill="#ef4444" rx="5"/>
        <text x="140" y="750" text-anchor="end" class="row">prrofile_purple</text>
        <text x="660" y="750" text-anchor="start" class="score">15.0% (S:0%)</text><rect x="150" y="780" width="500" height="30" fill="#eee" rx="5"/><rect x="150" y="780" width="75.0" height="30" fill="#ef4444" rx="5"/>
        <text x="140" y="800" text-anchor="end" class="row">proxy_shadosocks</text>
        <text x="660" y="800" text-anchor="start" class="score">15.0% (S:0%)</text><rect x="150" y="830" width="500" height="30" fill="#eee" rx="5"/><rect x="150" y="830" width="0.0" height="30" fill="#ef4444" rx="5"/>
        <text x="140" y="850" text-anchor="end" class="row">meli_proxyy</text>
        <text x="660" y="850" text-anchor="start" class="score">0.0% (S:0%)</text><rect x="150" y="880" width="500" height="30" fill="#eee" rx="5"/><rect x="150" y="880" width="75.0" height="30" fill="#ef4444" rx="5"/>
        <text x="140" y="900" text-anchor="end" class="row">DirectVPN</text>
        <text x="660" y="900" text-anchor="start" class="score">15.0% (S:0%)</text><rect x="150" y="930" width="500" height="30" fill="#eee" rx="5"/><rect x="150" y="930" width="75.0" height="30" fill="#ef4444" rx="5"/>
        <text x="140" y="950" text-anchor="end" class="row">Parsashonam</text>
        <text x="660" y="950" text-anchor="start" class="score">15.0% (S:0%)</text><rect x="150" y="980" width="500" height="30" fill="#eee" rx="5"/><rect x="150" y="980" width="75.0" height="30" fill="#ef4444" rx="5"/>
        <text x="140" y="1000" text-anchor="end" class="row">ArV2ray</text>
        <text x="660" y="1000" text-anchor="start" class="score">15.0% (S:0%)</text><rect x="150" y="1030" width="500" height="30" fill="#eee" rx="5"/><rect x="150" y="1030" width="0.0" height="30" fill="#ef4444" rx="5"/>
        <text x="140" y="1050" text-anchor="end" class="row">VmessProtocol</text>
        <text x="660" y="1050" text-anchor="start" class="score">0.0% (S:0%)</text><rect x="150" y="1080" width="500" height="30" fill="#eee" rx="5"/><rect x="150" y="1080" width="377.55" height="30" fill="#22c55e" rx="5"/>
        <text x="140" y="1100" text-anchor="end" class="row">V2ray_Alpha</text>
        <text x="660" y="1100" text-anchor="start" class="score">75.5% (S:100%)</text></svg>