<?xml version="1.0" encoding="UTF-8"?>
    <svg width="800" height="6950" version="1.1" xmlns="http://www.w3.org/2000/svg">
    <style>
        .row { font: 14px Arial; fill: #64748b; }
        .score { font: bold 14px Arial; fill: #64748b; }
    </style>
    <text x="400" y="40" text-anchor="middle" font-size="20px" font-weight="bold" fill="#64748b">Channel Performance Overview</text><rect x="150" y="80" width="500" height="30" fill="#eee" rx="5"/><rect x="150" y="80" width="386.4" height="30" fill="#22c55e" rx="5"/>
        <text x="140" y="100" text-anchor="end" class="row">wireguard_configs.txt</text>
        <text x="660" y="100" text-anchor="start" class="score">77.3% (S:100%)</text><rect x="150" y="130" width="500" height="30" fill="#eee" rx="5"/><rect x="150" y="130" width="388.84999999999997" height="30" fill="#22c55e" rx="5"/>
        <text x="140" y="150" text-anchor="end" class="row">configs.txt</text>
        <text x="660" y="150" text-anchor="start" class="score">77.8% (S:100%)</text><rect x="150" y="180" width="500" height="30" fill="#eee" rx="5"/><rect x="150" y="180" width="395.75" height="30" fill="#22c55e" rx="5"/>
        <text x="140" y="200" text-anchor="end" class="row">Gozargah_Sub</text>
        <text x="660" y="200" text-anchor="start" class="score">79.2% (S:100%)</text><rect x="150" y="230" width="500" height="30" fill="#eee" rx="5"/><rect x="150" y="230" width="376.2" height="30" fill="#22c55e" rx="5"/>
        <text x="140" y="250" text-anchor="end" class="row">hysteria</text>
        <text x="660" y="250" text-anchor="start" class="score">75.2% (S:100%)</text><rect x="150" y="280" width="500" height="30" fill="#eee" rx="5"/><rect x="150" y="280" width="378.40000000000003" height="30" fill="#22c55e" rx="5"/>
        <text x="140" y="300" text-anchor="end" class="row">sub_1.txt</text>
        <text x="660" y="300" text-anchor="start" class="score">75.7% (S:100%)</text><rect x="150" y="330" width="500" height="30" fill="#eee" rx="5"/><rect x="150" y="330" width="377.95000000000005" height="30" fill="#22c55e" rx="5"/>
        <text x="140" y="350" text-anchor="end" class="row">sub_2.txt</text>
        <text x="660" y="350" text-anchor="start" class="score">75.6% (S:100%)</text><rect x="150" y="380" width="500" height="30" fill="#eee" rx="5"/><rect x="150" y="380" width="377.59999999999997" height="30" fill="#22c55e" rx="5"/>
        <text x="140" y="400" text-anchor="end" class="row">sub_3.txt</text>
        <text x="660" y="400" text-anchor="start" class="score">75.5% (S:100%)</text><rect x="150" y="430" width="500" height="30" fill="#eee" rx="5"/><rect x="150" y="430" width="378.05" height="30" fill="#22c55e" rx="5"/>
        <text x="140" y="450" text-anchor="end" class="row">sub_4.txt</text>
        <text x="660" y="450" text-anchor="start" class="score">75.6% (S:100%)</text><rect x="150" y="480" width="500" height="30" fill="#eee" rx="5"/><rect x="150" y="480" width="332.25" height="30" fill="#eab308" rx="5"/>
        <text x="140" y="500" text-anchor="end" class="row">sub_1.txt</text>
        <text x="660" y="500" text-anchor="start" class="score">66.5% (S:100%)</text><rect x="150" y="530" width="500" height="30" fill="#eee" rx="5"/><rect x="150" y="530" width="356.85" height="30" fill="#22c55e" rx="5"/>
        <text x="140" y="550" text-anchor="end" class="row">sub_2.txt</text>
        <text x="660" y="550" text-anchor="start" class="score">71.4% (S:100%)</text><rect x="150" y="580" width="500" height="30" fill="#eee" rx="5"/><rect x="150" y="580" width="348.2" height="30" fill="#eab308" rx="5"/>
        <text x="140" y="600" text-anchor="end" class="row">sub_3.txt</text>
        <text x="660" y="600" text-anchor="start" class="score">69.6% (S:100%)</text><rect x="150" y="630" width="500" height="30" fill="#eee" rx="5"/><rect x="150" y="630" width="367.1" height="30" fill="#22c55e" rx="5"/>
        <text x="140" y="650" text-anchor="end" class="row">sub_4.txt</text>
        <text x="660" y="650" text-anchor="start" class="score">73.4% (S:100%)</text><rect x="150" y="680" width="500" height="30" fill="#eee" rx="5"/><rect x="150" y="680" width="374.54999999999995" height="30" fill="#22c55e" rx="5"/>
        <text x="140" y="700" text-anchor="end" class="row">kayhgngcollectorv3v2ray_ss</text>
        <text x="660" y="700" text-anchor="start" class="score">74.9% (S:100%)</text><rect x="150" y="730" width="500" height="30" fill="#eee" rx="5"/><rect x="150" y="730" width="75.0" height="30" fill="#ef4444" rx="5"/>
        <text x="140" y="750" text-anchor="end" class="row"></text>
        <text x="660" y="750" text-anchor="start" class="score">15.0% (S:0%)</text><rect x="150" y="780" width="500" height="30" fill="#eee" rx="5"/><rect x="150" y="780" width="374.75" height="30" fill="#22c55e" rx="5"/>
        <text x="140" y="800" text-anchor="end" class="row">Arista4.txt</text>
        <text x="660" y="800" text-anchor="start" class="score">75.0% (S:100%)</text><rect x="150" y="830" width="500" height="30" fill="#eee" rx="5"/><rect x="150" y="830" width="75.0" height="30" fill="#ef4444" rx="5"/>
        <text x="140" y="850" text-anchor="end" class="row">Arista5.txt</text>
        <text x="660" y="850" text-anchor="start" class="score">15.0% (S:0%)</text><rect x="150" y="880" width="500" height="30" fill="#eee" rx="5"/><rect x="150" y="880" width="75.0" height="30" fill="#ef4444" rx="5"/>
        <text x="140" y="900" text-anchor="end" class="row">Arista6.txt</text>
        <text x="660" y="900" text-anchor="start" class="score">15.0% (S:0%)</text><rect x="150" y="930" width="500" height="30" fill="#eee" rx="5"/><rect x="150" y="930" width="373.2" height="30" fill="#22c55e" rx="5"/>
        <text x="140" y="950" text-anchor="end" class="row">Arista7.txt</text>
        <text x="660" y="950" text-anchor="start" class="score">74.6% (S:100%)</text><rect x="150" y="980" width="500" height="30" fill="#eee" rx="5"/><rect x="150" y="980" width="75.0" height="30" fill="#ef4444" rx="5"/>
        <text x="140" y="1000" text-anchor="end" class="row">shadowsocksm</text>
        <text x="660" y="1000" text-anchor="start" class="score">15.0% (S:0%)</text><rect x="150" y="1030" width="500" height="30" fill="#eee" rx="5"/><rect x="150" y="1030" width="75.0" height="30" fill="#ef4444" rx="5"/>
        <text x="140" y="1050" text-anchor="end" class="row">v2ray_alpha</text>
        <text x="660" y="1050" text-anchor="start" class="score">15.0% (S:0%)</text><rect x="150" y="1080" width="500" height="30" fill="#eee" rx="5"/><rect x="150" y="1080" width="75.0" height="30" fill="#ef4444" rx="5"/>
        <text x="140" y="1100" text-anchor="end" class="row">vlessconfig</text>
        <text x="660" y="1100" text-anchor="start" class="score">15.0% (S:0%)</text><rect x="150" y="1130" width="500" height="30" fill="#eee" rx="5"/><rect x="150" y="1130" width="75.0" height="30" fill="#ef4444" rx="5"/>
        <text x="140" y="1150" text-anchor="end" class="row">v2rayngvpn</text>
        <text x="660" y="1150" text-anchor="start" class="score">15.0% (S:0%)</text><rect x="150" y="1180" width="500" height="30" fill="#eee" rx="5"/><rect x="150" y="1180" width="75.0" height="30" fill="#ef4444" rx="5"/>
        <text x="140" y="1200" text-anchor="end" class="row">an0nymousteam</text>
        <text x="660" y="1200" text-anchor="start" class="score">15.0% (S:0%)</text><rect x="150" y="1230" width="500" height="30" fill="#eee" rx="5"/><rect x="150" y="1230" width="75.0" height="30" fill="#ef4444" rx="5"/>
        <text x="140" y="1250" text-anchor="end" class="row">oneclickvpnkeys</text>
        <text x="660" y="1250" text-anchor="start" class="score">15.0% (S:0%)</text><rect x="150" y="1280" width="500" height="30" fill="#eee" rx="5"/><rect x="150" y="1280" width="75.0" height="30" fill="#ef4444" rx="5"/>
        <text x="140" y="1300" text-anchor="end" class="row">cav2ray</text>
        <text x="660" y="1300" text-anchor="start" class="score">15.0% (S:0%)</text><rect x="150" y="1330" width="500" height="30" fill="#eee" rx="5"/><rect x="150" y="1330" width="75.0" height="30" fill="#ef4444" rx="5"/>
        <text x="140" y="1350" text-anchor="end" class="row">eliv2ray</text>
        <text x="660" y="1350" text-anchor="start" class="score">15.0% (S:0%)</text><rect x="150" y="1380" width="500" height="30" fill="#eee" rx="5"/><rect x="150" y="1380" width="75.0" height="30" fill="#ef4444" rx="5"/>
        <text x="140" y="1400" text-anchor="end" class="row">mehradlearn</text>
        <text x="660" y="1400" text-anchor="start" class="score">15.0% (S:0%)</text><rect x="150" y="1430" width="500" height="30" fill="#eee" rx="5"/><rect x="150" y="1430" width="460.95" height="30" fill="#22c55e" rx="5"/>
        <text x="140" y="1450" text-anchor="end" class="row">outline_vpn</text>
        <text x="660" y="1450" text-anchor="start" class="score">92.2% (S:100%)</text><rect x="150" y="1480" width="500" height="30" fill="#eee" rx="5"/><rect x="150" y="1480" width="75.0" height="30" fill="#ef4444" rx="5"/>
        <text x="140" y="1500" text-anchor="end" class="row">safenet_server</text>
        <text x="660" y="1500" text-anchor="start" class="score">15.0% (S:0%)</text><rect x="150" y="1530" width="500" height="30" fill="#eee" rx="5"/><rect x="150" y="1530" width="75.0" height="30" fill="#ef4444" rx="5"/>
        <text x="140" y="1550" text-anchor="end" class="row">vpn_king_v2ray</text>
        <text x="660" y="1550" text-anchor="start" class="score">15.0% (S:0%)</text><rect x="150" y="1580" width="500" height="30" fill="#eee" rx="5"/><rect x="150" y="1580" width="75.0" height="30" fill="#ef4444" rx="5"/>
        <text x="140" y="1600" text-anchor="end" class="row">ipv2ray</text>
        <text x="660" y="1600" text-anchor="start" class="score">15.0% (S:0%)</text><rect x="150" y="1630" width="500" height="30" fill="#eee" rx="5"/><rect x="150" y="1630" width="75.0" height="30" fill="#ef4444" rx="5"/>
        <text x="140" y="1650" text-anchor="end" class="row">lrnbymaa</text>
        <text x="660" y="1650" text-anchor="start" class="score">15.0% (S:0%)</text><rect x="150" y="1680" width="500" height="30" fill="#eee" rx="5"/><rect x="150" y="1680" width="75.0" height="30" fill="#ef4444" rx="5"/>
        <text x="140" y="1700" text-anchor="end" class="row">proxy_kafee</text>
        <text x="660" y="1700" text-anchor="start" class="score">15.0% (S:0%)</text><rect x="150" y="1730" width="500" height="30" fill="#eee" rx="5"/><rect x="150" y="1730" width="75.0" height="30" fill="#ef4444" rx="5"/>
        <text x="140" y="1750" text-anchor="end" class="row">proxy_mtm</text>
        <text x="660" y="1750" text-anchor="start" class="score">15.0% (S:0%)</text><rect x="150" y="1780" width="500" height="30" fill="#eee" rx="5"/><rect x="150" y="1780" width="75.0" height="30" fill="#ef4444" rx="5"/>
        <text x="140" y="1800" text-anchor="end" class="row">v2rayng_vpnn</text>
        <text x="660" y="1800" text-anchor="start" class="score">15.0% (S:0%)</text><rect x="150" y="1830" width="500" height="30" fill="#eee" rx="5"/><rect x="150" y="1830" width="75.0" height="30" fill="#ef4444" rx="5"/>
        <text x="140" y="1850" text-anchor="end" class="row">tv2rayrr</text>
        <text x="660" y="1850" text-anchor="start" class="score">15.0% (S:0%)</text><rect x="150" y="1880" width="500" height="30" fill="#eee" rx="5"/><rect x="150" y="1880" width="75.0" height="30" fill="#ef4444" rx="5"/>
        <text x="140" y="1900" text-anchor="end" class="row">v2rey_hiddify</text>
        <text x="660" y="1900" text-anchor="start" class="score">15.0% (S:0%)</text><rect x="150" y="1930" width="500" height="30" fill="#eee" rx="5"/><rect x="150" y="1930" width="75.0" height="30" fill="#ef4444" rx="5"/>
        <text x="140" y="1950" text-anchor="end" class="row">server_nekobox</text>
        <text x="660" y="1950" text-anchor="start" class="score">15.0% (S:0%)</text><rect x="150" y="1980" width="500" height="30" fill="#eee" rx="5"/><rect x="150" y="1980" width="75.0" height="30" fill="#ef4444" rx="5"/>
        <text x="140" y="2000" text-anchor="end" class="row">v2rayngn</text>
        <text x="660" y="2000" text-anchor="start" class="score">15.0% (S:0%)</text><rect x="150" y="2030" width="500" height="30" fill="#eee" rx="5"/><rect x="150" y="2030" width="498.9" height="30" fill="#22c55e" rx="5"/>
        <text x="140" y="2050" text-anchor="end" class="row">v2raying</text>
        <text x="660" y="2050" text-anchor="start" class="score">99.8% (S:100%)</text><rect x="150" y="2080" width="500" height="30" fill="#eee" rx="5"/><rect x="150" y="2080" width="75.0" height="30" fill="#ef4444" rx="5"/>
        <text x="140" y="2100" text-anchor="end" class="row">s0013_official</text>
        <text x="660" y="2100" text-anchor="start" class="score">15.0% (S:0%)</text><rect x="150" y="2130" width="500" height="30" fill="#eee" rx="5"/><rect x="150" y="2130" width="75.0" height="30" fill="#ef4444" rx="5"/>
        <text x="140" y="2150" text-anchor="end" class="row">v2rayroz</text>
        <text x="660" y="2150" text-anchor="start" class="score">15.0% (S:0%)</text><rect x="150" y="2180" width="500" height="30" fill="#eee" rx="5"/><rect x="150" y="2180" width="75.0" height="30" fill="#ef4444" rx="5"/>
        <text x="140" y="2200" text-anchor="end" class="row">v2rayng_outlinee</text>
        <text x="660" y="2200" text-anchor="start" class="score">15.0% (S:0%)</text><rect x="150" y="2230" width="500" height="30" fill="#eee" rx="5"/><rect x="150" y="2230" width="75.0" height="30" fill="#ef4444" rx="5"/>
        <text x="140" y="2250" text-anchor="end" class="row">sinavm</text>
        <text x="660" y="2250" text-anchor="start" class="score">15.0% (S:0%)</text><rect x="150" y="2280" width="500" height="30" fill="#eee" rx="5"/><rect x="150" y="2280" width="405.20000000000005" height="30" fill="#22c55e" rx="5"/>
        <text x="140" y="2300" text-anchor="end" class="row">customv2ray</text>
        <text x="660" y="2300" text-anchor="start" class="score">81.0% (S:100%)</text><rect x="150" y="2330" width="500" height="30" fill="#eee" rx="5"/><rect x="150" y="2330" width="75.0" height="30" fill="#ef4444" rx="5"/>
        <text x="140" y="2350" text-anchor="end" class="row">fastkanfig</text>
        <text x="660" y="2350" text-anchor="start" class="score">15.0% (S:0%)</text><rect x="150" y="2380" width="500" height="30" fill="#eee" rx="5"/><rect x="150" y="2380" width="75.0" height="30" fill="#ef4444" rx="5"/>
        <text x="140" y="2400" text-anchor="end" class="row">vpnstorefast</text>
        <text x="660" y="2400" text-anchor="start" class="score">15.0% (S:0%)</text><rect x="150" y="2430" width="500" height="30" fill="#eee" rx="5"/><rect x="150" y="2430" width="442.0" height="30" fill="#22c55e" rx="5"/>
        <text x="140" y="2450" text-anchor="end" class="row">hope_net</text>
        <text x="660" y="2450" text-anchor="start" class="score">88.4% (S:100%)</text><rect x="150" y="2480" width="500" height="30" fill="#eee" rx="5"/><rect x="150" y="2480" width="75.0" height="30" fill="#ef4444" rx="5"/>
        <text x="140" y="2500" text-anchor="end" class="row">oxnet_ir</text>
        <text x="660" y="2500" text-anchor="start" class="score">15.0% (S:0%)</text><rect x="150" y="2530" width="500" height="30" fill="#eee" rx="5"/><rect x="150" y="2530" width="75.0" height="30" fill="#ef4444" rx="5"/>
        <text x="140" y="2550" text-anchor="end" class="row">cryptoguardvpn</text>
        <text x="660" y="2550" text-anchor="start" class="score">15.0% (S:0%)</text><rect x="150" y="2580" width="500" height="30" fill="#eee" rx="5"/><rect x="150" y="2580" width="75.0" height="30" fill="#ef4444" rx="5"/>
        <text x="140" y="2600" text-anchor="end" class="row">freeiranianv2rey</text>
        <text x="660" y="2600" text-anchor="start" class="score">15.0% (S:0%)</text><rect x="150" y="2630" width="500" height="30" fill="#eee" rx="5"/><rect x="150" y="2630" width="75.0" height="30" fill="#ef4444" rx="5"/>
        <text x="140" y="2650" text-anchor="end" class="row">ernoxin_shop</text>
        <text x="660" y="2650" text-anchor="start" class="score">15.0% (S:0%)</text><rect x="150" y="2680" width="500" height="30" fill="#eee" rx="5"/><rect x="150" y="2680" width="75.0" height="30" fill="#ef4444" rx="5"/>
        <text x="140" y="2700" text-anchor="end" class="row">darkvpnpro</text>
        <text x="660" y="2700" text-anchor="start" class="score">15.0% (S:0%)</text><rect x="150" y="2730" width="500" height="30" fill="#eee" rx="5"/><rect x="150" y="2730" width="75.0" height="30" fill="#ef4444" rx="5"/>
        <text x="140" y="2750" text-anchor="end" class="row">free_vpn_for_all_of_us</text>
        <text x="660" y="2750" text-anchor="start" class="score">15.0% (S:0%)</text><rect x="150" y="2780" width="500" height="30" fill="#eee" rx="5"/><rect x="150" y="2780" width="75.0" height="30" fill="#ef4444" rx="5"/>
        <text x="140" y="2800" text-anchor="end" class="row">noforcedheaven</text>
        <text x="660" y="2800" text-anchor="start" class="score">15.0% (S:0%)</text><rect x="150" y="2830" width="500" height="30" fill="#eee" rx="5"/><rect x="150" y="2830" width="75.0" height="30" fill="#ef4444" rx="5"/>
        <text x="140" y="2850" text-anchor="end" class="row">v2raybaz</text>
        <text x="660" y="2850" text-anchor="start" class="score">15.0% (S:0%)</text><rect x="150" y="2880" width="500" height="30" fill="#eee" rx="5"/><rect x="150" y="2880" width="75.0" height="30" fill="#ef4444" rx="5"/>
        <text x="140" y="2900" text-anchor="end" class="row">freedomofinfor</text>
        <text x="660" y="2900" text-anchor="start" class="score">15.0% (S:0%)</text><rect x="150" y="2930" width="500" height="30" fill="#eee" rx="5"/><rect x="150" y="2930" width="465.55" height="30" fill="#22c55e" rx="5"/>
        <text x="140" y="2950" text-anchor="end" class="row">vpnstable</text>
        <text x="660" y="2950" text-anchor="start" class="score">93.1% (S:100%)</text><rect x="150" y="2980" width="500" height="30" fill="#eee" rx="5"/><rect x="150" y="2980" width="448.15" height="30" fill="#22c55e" rx="5"/>
        <text x="140" y="3000" text-anchor="end" class="row">orange_vpns</text>
        <text x="660" y="3000" text-anchor="start" class="score">89.6% (S:100%)</text><rect x="150" y="3030" width="500" height="30" fill="#eee" rx="5"/><rect x="150" y="3030" width="75.0" height="30" fill="#ef4444" rx="5"/>
        <text x="140" y="3050" text-anchor="end" class="row">amirtronic</text>
        <text x="660" y="3050" text-anchor="start" class="score">15.0% (S:0%)</text><rect x="150" y="3080" width="500" height="30" fill="#eee" rx="5"/><rect x="150" y="3080" width="75.0" height="30" fill="#ef4444" rx="5"/>
        <text x="140" y="3100" text-anchor="end" class="row">kb_v2ray_store</text>
        <text x="660" y="3100" text-anchor="start" class="score">15.0% (S:0%)</text><rect x="150" y="3130" width="500" height="30" fill="#eee" rx="5"/><rect x="150" y="3130" width="75.0" height="30" fill="#ef4444" rx="5"/>
        <text x="140" y="3150" text-anchor="end" class="row">freevpnhomesconfigs</text>
        <text x="660" y="3150" text-anchor="start" class="score">15.0% (S:0%)</text><rect x="150" y="3180" width="500" height="30" fill="#eee" rx="5"/><rect x="150" y="3180" width="75.0" height="30" fill="#ef4444" rx="5"/>
        <text x="140" y="3200" text-anchor="end" class="row">ahmedhamoomi_servers</text>
        <text x="660" y="3200" text-anchor="start" class="score">15.0% (S:0%)</text><rect x="150" y="3230" width="500" height="30" fill="#eee" rx="5"/><rect x="150" y="3230" width="75.0" height="30" fill="#ef4444" rx="5"/>
        <text x="140" y="3250" text-anchor="end" class="row">v2ray_nima02</text>
        <text x="660" y="3250" text-anchor="start" class="score">15.0% (S:0%)</text><rect x="150" y="3280" width="500" height="30" fill="#eee" rx="5"/><rect x="150" y="3280" width="461.4" height="30" fill="#22c55e" rx="5"/>
        <text x="140" y="3300" text-anchor="end" class="row">isvvpn</text>
        <text x="660" y="3300" text-anchor="start" class="score">92.3% (S:100%)</text><rect x="150" y="3330" width="500" height="30" fill="#eee" rx="5"/><rect x="150" y="3330" width="75.0" height="30" fill="#ef4444" rx="5"/>
        <text x="140" y="3350" text-anchor="end" class="row">prossh</text>
        <text x="660" y="3350" text-anchor="start" class="score">15.0% (S:0%)</text><rect x="150" y="3380" width="500" height="30" fill="#eee" rx="5"/><rect x="150" y="3380" width="75.0" height="30" fill="#ef4444" rx="5"/>
        <text x="140" y="3400" text-anchor="end" class="row">v2ray_hub1</text>
        <text x="660" y="3400" text-anchor="start" class="score">15.0% (S:0%)</text><rect x="150" y="3430" width="500" height="30" fill="#eee" rx="5"/><rect x="150" y="3430" width="398.75" height="30" fill="#22c55e" rx="5"/>
        <text x="140" y="3450" text-anchor="end" class="row">grizzlyvpn</text>
        <text x="660" y="3450" text-anchor="start" class="score">79.8% (S:100%)</text><rect x="150" y="3480" width="500" height="30" fill="#eee" rx="5"/><rect x="150" y="3480" width="75.0" height="30" fill="#ef4444" rx="5"/>
        <text x="140" y="3500" text-anchor="end" class="row">bestforbest66</text>
        <text x="660" y="3500" text-anchor="start" class="score">15.0% (S:0%)</text><rect x="150" y="3530" width="500" height="30" fill="#eee" rx="5"/><rect x="150" y="3530" width="75.0" height="30" fill="#ef4444" rx="5"/>
        <text x="140" y="3550" text-anchor="end" class="row">curetech</text>
        <text x="660" y="3550" text-anchor="start" class="score">15.0% (S:0%)</text><rect x="150" y="3580" width="500" height="30" fill="#eee" rx="5"/><rect x="150" y="3580" width="386.4" height="30" fill="#22c55e" rx="5"/>
        <text x="140" y="3600" text-anchor="end" class="row">v2source</text>
        <text x="660" y="3600" text-anchor="start" class="score">77.3% (S:100%)</text><rect x="150" y="3630" width="500" height="30" fill="#eee" rx="5"/><rect x="150" y="3630" width="75.0" height="30" fill="#ef4444" rx="5"/>
        <text x="140" y="3650" text-anchor="end" class="row">getconfigir</text>
        <text x="660" y="3650" text-anchor="start" class="score">15.0% (S:0%)</text><rect x="150" y="3680" width="500" height="30" fill="#eee" rx="5"/><rect x="150" y="3680" width="385.3" height="30" fill="#22c55e" rx="5"/>
        <text x="140" y="3700" text-anchor="end" class="row">parsashonam</text>
        <text x="660" y="3700" text-anchor="start" class="score">77.1% (S:100%)</text><rect x="150" y="3730" width="500" height="30" fill="#eee" rx="5"/><rect x="150" y="3730" width="384.0" height="30" fill="#22c55e" rx="5"/>
        <text x="140" y="3750" text-anchor="end" class="row">arv2ray</text>
        <text x="660" y="3750" text-anchor="start" class="score">76.8% (S:100%)</text><rect x="150" y="3780" width="500" height="30" fill="#eee" rx="5"/><rect x="150" y="3780" width="463.2" height="30" fill="#22c55e" rx="5"/>
        <text x="140" y="3800" text-anchor="end" class="row">configfa</text>
        <text x="660" y="3800" text-anchor="start" class="score">92.6% (S:100%)</text><rect x="150" y="3830" width="500" height="30" fill="#eee" rx="5"/><rect x="150" y="3830" width="75.0" height="30" fill="#ef4444" rx="5"/>
        <text x="140" y="3850" text-anchor="end" class="row">change_ip1</text>
        <text x="660" y="3850" text-anchor="start" class="score">15.0% (S:0%)</text><rect x="150" y="3880" width="500" height="30" fill="#eee" rx="5"/><rect x="150" y="3880" width="75.0" height="30" fill="#ef4444" rx="5"/>
        <text x="140" y="3900" text-anchor="end" class="row">vpncustomize</text>
        <text x="660" y="3900" text-anchor="start" class="score">15.0% (S:0%)</text><rect x="150" y="3930" width="500" height="30" fill="#eee" rx="5"/><rect x="150" y="3930" width="498.95000000000005" height="30" fill="#22c55e" rx="5"/>
        <text x="140" y="3950" text-anchor="end" class="row">suevpnx</text>
        <text x="660" y="3950" text-anchor="start" class="score">99.8% (S:100%)</text><rect x="150" y="3980" width="500" height="30" fill="#eee" rx="5"/><rect x="150" y="3980" width="75.0" height="30" fill="#ef4444" rx="5"/>
        <text x="140" y="4000" text-anchor="end" class="row">nfastvpnn</text>
        <text x="660" y="4000" text-anchor="start" class="score">15.0% (S:0%)</text><rect x="150" y="4030" width="500" height="30" fill="#eee" rx="5"/><rect x="150" y="4030" width="75.0" height="30" fill="#ef4444" rx="5"/>
        <text x="140" y="4050" text-anchor="end" class="row">napsternetv</text>
        <text x="660" y="4050" text-anchor="start" class="score">15.0% (S:0%)</text><rect x="150" y="4080" width="500" height="30" fill="#eee" rx="5"/><rect x="150" y="4080" width="75.0" height="30" fill="#ef4444" rx="5"/>
        <text x="140" y="4100" text-anchor="end" class="row">alpha_v2ray_iran</text>
        <text x="660" y="4100" text-anchor="start" class="score">15.0% (S:0%)</text><rect x="150" y="4130" width="500" height="30" fill="#eee" rx="5"/><rect x="150" y="4130" width="75.0" height="30" fill="#ef4444" rx="5"/>
        <text x="140" y="4150" text-anchor="end" class="row">vpn_proxy666</text>
        <text x="660" y="4150" text-anchor="start" class="score">15.0% (S:0%)</text><rect x="150" y="4180" width="500" height="30" fill="#eee" rx="5"/><rect x="150" y="4180" width="464.7" height="30" fill="#22c55e" rx="5"/>
        <text x="140" y="4200" text-anchor="end" class="row">xsfilternet</text>
        <text x="660" y="4200" text-anchor="start" class="score">92.9% (S:100%)</text><rect x="150" y="4230" width="500" height="30" fill="#eee" rx="5"/><rect x="150" y="4230" width="75.0" height="30" fill="#ef4444" rx="5"/>
        <text x="140" y="4250" text-anchor="end" class="row">hiidify_v2ray</text>
        <text x="660" y="4250" text-anchor="start" class="score">15.0% (S:0%)</text><rect x="150" y="4280" width="500" height="30" fill="#eee" rx="5"/><rect x="150" y="4280" width="75.0" height="30" fill="#ef4444" rx="5"/>
        <text x="140" y="4300" text-anchor="end" class="row">configwireguard</text>
        <text x="660" y="4300" text-anchor="start" class="score">15.0% (S:0%)</text><rect x="150" y="4330" width="500" height="30" fill="#eee" rx="5"/><rect x="150" y="4330" width="499.0" height="30" fill="#22c55e" rx="5"/>
        <text x="140" y="4350" text-anchor="end" class="row">wirevpnguard</text>
        <text x="660" y="4350" text-anchor="start" class="score">99.8% (S:100%)</text><rect x="150" y="4380" width="500" height="30" fill="#eee" rx="5"/><rect x="150" y="4380" width="398.84999999999997" height="30" fill="#22c55e" rx="5"/>
        <text x="140" y="4400" text-anchor="end" class="row">lonup_m</text>
        <text x="660" y="4400" text-anchor="start" class="score">79.8% (S:100%)</text><rect x="150" y="4430" width="500" height="30" fill="#eee" rx="5"/><rect x="150" y="4430" width="75.0" height="30" fill="#ef4444" rx="5"/>
        <text x="140" y="4450" text-anchor="end" class="row">configv2rayng</text>
        <text x="660" y="4450" text-anchor="start" class="score">15.0% (S:0%)</text><rect x="150" y="4480" width="500" height="30" fill="#eee" rx="5"/><rect x="150" y="4480" width="75.0" height="30" fill="#ef4444" rx="5"/>
        <text x="140" y="4500" text-anchor="end" class="row">v2ray_tunnel_plus</text>
        <text x="660" y="4500" text-anchor="start" class="score">15.0% (S:0%)</text><rect x="150" y="4530" width="500" height="30" fill="#eee" rx="5"/><rect x="150" y="4530" width="75.0" height="30" fill="#ef4444" rx="5"/>
        <text x="140" y="4550" text-anchor="end" class="row">cookvip</text>
        <text x="660" y="4550" text-anchor="start" class="score">15.0% (S:0%)</text><rect x="150" y="4580" width="500" height="30" fill="#eee" rx="5"/><rect x="150" y="4580" width="446.9" height="30" fill="#22c55e" rx="5"/>
        <text x="140" y="4600" text-anchor="end" class="row">v2rayfree</text>
        <text x="660" y="4600" text-anchor="start" class="score">89.4% (S:100%)</text><rect x="150" y="4630" width="500" height="30" fill="#eee" rx="5"/><rect x="150" y="4630" width="75.0" height="30" fill="#ef4444" rx="5"/>
        <text x="140" y="4650" text-anchor="end" class="row">freev2rays</text>
        <text x="660" y="4650" text-anchor="start" class="score">15.0% (S:0%)</text><rect x="150" y="4680" width="500" height="30" fill="#eee" rx="5"/><rect x="150" y="4680" width="455.15" height="30" fill="#22c55e" rx="5"/>
        <text x="140" y="4700" text-anchor="end" class="row">v2ray_free_conf</text>
        <text x="660" y="4700" text-anchor="start" class="score">91.0% (S:100%)</text><rect x="150" y="4730" width="500" height="30" fill="#eee" rx="5"/><rect x="150" y="4730" width="499.0" height="30" fill="#22c55e" rx="5"/>
        <text x="140" y="4750" text-anchor="end" class="row">privatevpns</text>
        <text x="660" y="4750" text-anchor="start" class="score">99.8% (S:100%)</text><rect x="150" y="4780" width="500" height="30" fill="#eee" rx="5"/><rect x="150" y="4780" width="416.95" height="30" fill="#22c55e" rx="5"/>
        <text x="140" y="4800" text-anchor="end" class="row">ip_cf_config</text>
        <text x="660" y="4800" text-anchor="start" class="score">83.4% (S:100%)</text><rect x="150" y="4830" width="500" height="30" fill="#eee" rx="5"/><rect x="150" y="4830" width="455.05" height="30" fill="#22c55e" rx="5"/>
        <text x="140" y="4850" text-anchor="end" class="row">shadowproxy66</text>
        <text x="660" y="4850" text-anchor="start" class="score">91.0% (S:100%)</text><rect x="150" y="4880" width="500" height="30" fill="#eee" rx="5"/><rect x="150" y="4880" width="75.0" height="30" fill="#ef4444" rx="5"/>
        <text x="140" y="4900" text-anchor="end" class="row">outlinereleasedkey</text>
        <text x="660" y="4900" text-anchor="start" class="score">15.0% (S:0%)</text><rect x="150" y="4930" width="500" height="30" fill="#eee" rx="5"/><rect x="150" y="4930" width="448.45" height="30" fill="#22c55e" rx="5"/>
        <text x="140" y="4950" text-anchor="end" class="row">prrofile_purple</text>
        <text x="660" y="4950" text-anchor="start" class="score">89.7% (S:100%)</text><rect x="150" y="4980" width="500" height="30" fill="#eee" rx="5"/><rect x="150" y="4980" width="75.0" height="30" fill="#ef4444" rx="5"/>
        <text x="140" y="5000" text-anchor="end" class="row">proxy_shadosocks</text>
        <text x="660" y="5000" text-anchor="start" class="score">15.0% (S:0%)</text><rect x="150" y="5030" width="500" height="30" fill="#eee" rx="5"/><rect x="150" y="5030" width="480.45000000000005" height="30" fill="#22c55e" rx="5"/>
        <text x="140" y="5050" text-anchor="end" class="row">meli_proxyy</text>
        <text x="660" y="5050" text-anchor="start" class="score">96.1% (S:100%)</text><rect x="150" y="5080" width="500" height="30" fill="#eee" rx="5"/><rect x="150" y="5080" width="499.05" height="30" fill="#22c55e" rx="5"/>
        <text x="140" y="5100" text-anchor="end" class="row">directvpn</text>
        <text x="660" y="5100" text-anchor="start" class="score">99.8% (S:100%)</text><rect x="150" y="5130" width="500" height="30" fill="#eee" rx="5"/><rect x="150" y="5130" width="75.0" height="30" fill="#ef4444" rx="5"/>
        <text x="140" y="5150" text-anchor="end" class="row">vmessprotocol</text>
        <text x="660" y="5150" text-anchor="start" class="score">15.0% (S:0%)</text><rect x="150" y="5180" width="500" height="30" fill="#eee" rx="5"/><rect x="150" y="5180" width="445.09999999999997" height="30" fill="#22c55e" rx="5"/>
        <text x="140" y="5200" text-anchor="end" class="row">viproxys</text>
        <text x="660" y="5200" text-anchor="start" class="score">89.0% (S:100%)</text><rect x="150" y="5230" width="500" height="30" fill="#eee" rx="5"/><rect x="150" y="5230" width="459.45" height="30" fill="#22c55e" rx="5"/>
        <text x="140" y="5250" text-anchor="end" class="row">heyatserver</text>
        <text x="660" y="5250" text-anchor="start" class="score">91.9% (S:100%)</text><rect x="150" y="5280" width="500" height="30" fill="#eee" rx="5"/><rect x="150" y="5280" width="498.95000000000005" height="30" fill="#22c55e" rx="5"/>
        <text x="140" y="5300" text-anchor="end" class="row">vpnfail_vless</text>
        <text x="660" y="5300" text-anchor="start" class="score">99.8% (S:100%)</text><rect x="150" y="5330" width="500" height="30" fill="#eee" rx="5"/><rect x="150" y="5330" width="75.0" height="30" fill="#ef4444" rx="5"/>
        <text x="140" y="5350" text-anchor="end" class="row">dailyv2ry</text>
        <text x="660" y="5350" text-anchor="start" class="score">15.0% (S:0%)</text><rect x="150" y="5380" width="500" height="30" fill="#eee" rx="5"/><rect x="150" y="5380" width="75.0" height="30" fill="#ef4444" rx="5"/>
        <text x="140" y="5400" text-anchor="end" class="row">qv2rayconfig</text>
        <text x="660" y="5400" text-anchor="start" class="score">15.0% (S:0%)</text><rect x="150" y="5430" width="500" height="30" fill="#eee" rx="5"/><rect x="150" y="5430" width="75.0" height="30" fill="#ef4444" rx="5"/>
        <text x="140" y="5450" text-anchor="end" class="row">xsfilternetv2</text>
        <text x="660" y="5450" text-anchor="start" class="score">15.0% (S:0%)</text><rect x="150" y="5480" width="500" height="30" fill="#eee" rx="5"/><rect x="150" y="5480" width="75.0" height="30" fill="#ef4444" rx="5"/>
        <text x="140" y="5500" text-anchor="end" class="row">redfree8</text>
        <text x="660" y="5500" text-anchor="start" class="score">15.0% (S:0%)</text><rect x="150" y="5530" width="500" height="30" fill="#eee" rx="5"/><rect x="150" y="5530" width="75.0" height="30" fill="#ef4444" rx="5"/>
        <text x="140" y="5550" text-anchor="end" class="row">azadnet</text>
        <text x="660" y="5550" text-anchor="start" class="score">15.0% (S:0%)</text><rect x="150" y="5580" width="500" height="30" fill="#eee" rx="5"/><rect x="150" y="5580" width="75.0" height="30" fill="#ef4444" rx="5"/>
        <text x="140" y="5600" text-anchor="end" class="row">v2sayfree</text>
        <text x="660" y="5600" text-anchor="start" class="score">15.0% (S:0%)</text><rect x="150" y="5630" width="500" height="30" fill="#eee" rx="5"/><rect x="150" y="5630" width="75.0" height="30" fill="#ef4444" rx="5"/>
        <text x="140" y="5650" text-anchor="end" class="row">safenet4all</text>
        <text x="660" y="5650" text-anchor="start" class="score">15.0% (S:0%)</text><rect x="150" y="5680" width="500" height="30" fill="#eee" rx="5"/><rect x="150" y="5680" width="75.0" height="30" fill="#ef4444" rx="5"/>
        <text x="140" y="5700" text-anchor="end" class="row">golestan_vpn</text>
        <text x="660" y="5700" text-anchor="start" class="score">15.0% (S:0%)</text><rect x="150" y="5730" width="500" height="30" fill="#eee" rx="5"/><rect x="150" y="5730" width="75.0" height="30" fill="#ef4444" rx="5"/>
        <text x="140" y="5750" text-anchor="end" class="row">mehduox_vpn</text>
        <text x="660" y="5750" text-anchor="start" class="score">15.0% (S:0%)</text><rect x="150" y="5780" width="500" height="30" fill="#eee" rx="5"/><rect x="150" y="5780" width="75.0" height="30" fill="#ef4444" rx="5"/>
        <text x="140" y="5800" text-anchor="end" class="row">kayh_gng</text>
        <text x="660" y="5800" text-anchor="start" class="score">15.0% (S:0%)</text><rect x="150" y="5830" width="500" height="30" fill="#eee" rx="5"/><rect x="150" y="5830" width="75.0" height="30" fill="#ef4444" rx="5"/>
        <text x="140" y="5850" text-anchor="end" class="row">xrovpn</text>
        <text x="660" y="5850" text-anchor="start" class="score">15.0% (S:0%)</text><rect x="150" y="5880" width="500" height="30" fill="#eee" rx="5"/><rect x="150" y="5880" width="402.59999999999997" height="30" fill="#22c55e" rx="5"/>
        <text x="140" y="5900" text-anchor="end" class="row">viturey</text>
        <text x="660" y="5900" text-anchor="start" class="score">80.5% (S:100%)</text><rect x="150" y="5930" width="500" height="30" fill="#eee" rx="5"/><rect x="150" y="5930" width="436.25" height="30" fill="#22c55e" rx="5"/>
        <text x="140" y="5950" text-anchor="end" class="row">freedom_guard_net</text>
        <text x="660" y="5950" text-anchor="start" class="score">87.2% (S:100%)</text><rect x="150" y="5980" width="500" height="30" fill="#eee" rx="5"/><rect x="150" y="5980" width="75.0" height="30" fill="#ef4444" rx="5"/>
        <text x="140" y="6000" text-anchor="end" class="row">ln2ray</text>
        <text x="660" y="6000" text-anchor="start" class="score">15.0% (S:0%)</text><rect x="150" y="6030" width="500" height="30" fill="#eee" rx="5"/><rect x="150" y="6030" width="75.0" height="30" fill="#ef4444" rx="5"/>
        <text x="140" y="6050" text-anchor="end" class="row">zeusvpn_net</text>
        <text x="660" y="6050" text-anchor="start" class="score">15.0% (S:0%)</text><rect x="150" y="6080" width="500" height="30" fill="#eee" rx="5"/><rect x="150" y="6080" width="75.0" height="30" fill="#ef4444" rx="5"/>
        <text x="140" y="6100" text-anchor="end" class="row">v2nodes</text>
        <text x="660" y="6100" text-anchor="start" class="score">15.0% (S:0%)</text><rect x="150" y="6130" width="500" height="30" fill="#eee" rx="5"/><rect x="150" y="6130" width="405.09999999999997" height="30" fill="#22c55e" rx="5"/>
        <text x="140" y="6150" text-anchor="end" class="row">v2box_free</text>
        <text x="660" y="6150" text-anchor="start" class="score">81.0% (S:100%)</text><rect x="150" y="6180" width="500" height="30" fill="#eee" rx="5"/><rect x="150" y="6180" width="75.0" height="30" fill="#ef4444" rx="5"/>
        <text x="140" y="6200" text-anchor="end" class="row">vpnaloo</text>
        <text x="660" y="6200" text-anchor="start" class="score">15.0% (S:0%)</text><rect x="150" y="6230" width="500" height="30" fill="#eee" rx="5"/><rect x="150" y="6230" width="75.0" height="30" fill="#ef4444" rx="5"/>
        <text x="140" y="6250" text-anchor="end" class="row">v2ray_hidify</text>
        <text x="660" y="6250" text-anchor="start" class="score">15.0% (S:0%)</text><rect x="150" y="6280" width="500" height="30" fill="#eee" rx="5"/><rect x="150" y="6280" width="75.0" height="30" fill="#ef4444" rx="5"/>
        <text x="140" y="6300" text-anchor="end" class="row">purnet</text>
        <text x="660" y="6300" text-anchor="start" class="score">15.0% (S:0%)</text><rect x="150" y="6330" width="500" height="30" fill="#eee" rx="5"/><rect x="150" y="6330" width="101.25" height="30" fill="#ef4444" rx="5"/>
        <text x="140" y="6350" text-anchor="end" class="row">soskeynet</text>
        <text x="660" y="6350" text-anchor="start" class="score">20.2% (S:0%)</text><rect x="150" y="6380" width="500" height="30" fill="#eee" rx="5"/><rect x="150" y="6380" width="498.84999999999997" height="30" fill="#22c55e" rx="5"/>
        <text x="140" y="6400" text-anchor="end" class="row">begzarvpn</text>
        <text x="660" y="6400" text-anchor="start" class="score">99.8% (S:100%)</text><rect x="150" y="6430" width="500" height="30" fill="#eee" rx="5"/><rect x="150" y="6430" width="75.0" height="30" fill="#ef4444" rx="5"/>
        <text x="140" y="6450" text-anchor="end" class="row">proxydaemi</text>
        <text x="660" y="6450" text-anchor="start" class="score">15.0% (S:0%)</text><rect x="150" y="6480" width="500" height="30" fill="#eee" rx="5"/><rect x="150" y="6480" width="436.55" height="30" fill="#22c55e" rx="5"/>
        <text x="140" y="6500" text-anchor="end" class="row">slamvpn</text>
        <text x="660" y="6500" text-anchor="start" class="score">87.3% (S:100%)</text><rect x="150" y="6530" width="500" height="30" fill="#eee" rx="5"/><rect x="150" y="6530" width="75.0" height="30" fill="#ef4444" rx="5"/>
        <text x="140" y="6550" text-anchor="end" class="row">vpnz4</text>
        <text x="660" y="6550" text-anchor="start" class="score">15.0% (S:0%)</text><rect x="150" y="6580" width="500" height="30" fill="#eee" rx="5"/><rect x="150" y="6580" width="448.1" height="30" fill="#22c55e" rx="5"/>
        <text x="140" y="6600" text-anchor="end" class="row">hack_androidapp1</text>
        <text x="660" y="6600" text-anchor="start" class="score">89.6% (S:100%)</text><rect x="150" y="6630" width="500" height="30" fill="#eee" rx="5"/><rect x="150" y="6630" width="404.4" height="30" fill="#22c55e" rx="5"/>
        <text x="140" y="6650" text-anchor="end" class="row">p_tech2024</text>
        <text x="660" y="6650" text-anchor="start" class="score">80.9% (S:100%)</text><rect x="150" y="6680" width="500" height="30" fill="#eee" rx="5"/><rect x="150" y="6680" width="75.0" height="30" fill="#ef4444" rx="5"/>
        <text x="140" y="6700" text-anchor="end" class="row">yebekhe</text>
        <text x="660" y="6700" text-anchor="start" class="score">15.0% (S:0%)</text><rect x="150" y="6730" width="500" height="30" fill="#eee" rx="5"/><rect x="150" y="6730" width="75.0" height="30" fill="#ef4444" rx="5"/>
        <text x="140" y="6750" text-anchor="end" class="row">fr33c0nfig</text>
        <text x="660" y="6750" text-anchor="start" class="score">15.0% (S:0%)</text><rect x="150" y="6780" width="500" height="30" fill="#eee" rx="5"/><rect x="150" y="6780" width="464.0" height="30" fill="#22c55e" rx="5"/>
        <text x="140" y="6800" text-anchor="end" class="row">aristaproject</text>
        <text x="660" y="6800" text-anchor="start" class="score">92.8% (S:100%)</text><rect x="150" y="6830" width="500" height="30" fill="#eee" rx="5"/><rect x="150" y="6830" width="75.0" height="30" fill="#ef4444" rx="5"/>
        <text x="140" y="6850" text-anchor="end" class="row">kevinzakarian</text>
        <text x="660" y="6850" text-anchor="start" class="score">15.0% (S:0%)</text><rect x="150" y="6880" width="500" height="30" fill="#eee" rx="5"/><rect x="150" y="6880" width="75.0" height="30" fill="#ef4444" rx="5"/>
        <text x="140" y="6900" text-anchor="end" class="row">marambashi</text>
        <text x="660" y="6900" text-anchor="start" class="score">15.0% (S:0%)</text></svg>