<?xml version="1.0" encoding="UTF-8"?>
    <svg width="800" height="1100" version="1.1" xmlns="http://www.w3.org/2000/svg">
    <style>
        .row { font: 14px Arial; fill: #64748b; }
        .score { font: bold 14px Arial; fill: #64748b; }
    </style>
    <text x="400" y="40" text-anchor="middle" font-size="20px" font-weight="bold" fill="#64748b">Channel Performance Overview</text><rect x="150" y="80" width="500" height="30" fill="#eee" rx="5"/><rect x="150" y="80" width="388.05" height="30" fill="#22c55e" rx="5"/>
        <text x="140" y="100" text-anchor="end" class="row">configs.txt</text>
        <text x="660" y="100" text-anchor="start" class="score">77.6% (S:100%)</text><rect x="150" y="130" width="500" height="30" fill="#eee" rx="5"/><rect x="150" y="130" width="391.95" height="30" fill="#22c55e" rx="5"/>
        <text x="140" y="150" text-anchor="end" class="row">Gozargah_Sub</text>
        <text x="660" y="150" text-anchor="start" class="score">78.4% (S:100%)</text><rect x="150" y="180" width="500" height="30" fill="#eee" rx="5"/><rect x="150" y="180" width="378.15" height="30" fill="#22c55e" rx="5"/>
        <text x="140" y="200" text-anchor="end" class="row">sub_1.txt</text>
        <text x="660" y="200" text-anchor="start" class="score">75.6% (S:100%)</text><rect x="150" y="230" width="500" height="30" fill="#eee" rx="5"/><rect x="150" y="230" width="376.85" height="30" fill="#22c55e" rx="5"/>
        <text x="140" y="250" text-anchor="end" class="row">sub-link</text>
        <text x="660" y="250" text-anchor="start" class="score">75.4% (S:100%)</text><rect x="150" y="280" width="500" height="30" fill="#eee" rx="5"/><rect x="150" y="280" width="383.2" height="30" fill="#22c55e" rx="5"/>
        <text x="140" y="300" text-anchor="end" class="row">FreeV2rays</text>
        <text x="660" y="300" text-anchor="start" class="score">76.6% (S:100%)</text><rect x="150" y="330" width="500" height="30" fill="#eee" rx="5"/><rect x="150" y="330" width="442.59999999999997" height="30" fill="#22c55e" rx="5"/>
        <text x="140" y="350" text-anchor="end" class="row">v2ray_free_conf</text>
        <text x="660" y="350" text-anchor="start" class="score">88.5% (S:100%)</text><rect x="150" y="380" width="500" height="30" fill="#eee" rx="5"/><rect x="150" y="380" width="496.8" height="30" fill="#22c55e" rx="5"/>
        <text x="140" y="400" text-anchor="end" class="row">PrivateVPNs</text>
        <text x="660" y="400" text-anchor="start" class="score">99.4% (S:100%)</text><rect x="150" y="430" width="500" height="30" fill="#eee" rx="5"/><rect x="150" y="430" width="422.65" height="30" fill="#22c55e" rx="5"/>
        <text x="140" y="450" text-anchor="end" class="row">IP_CF_Config</text>
        <text x="660" y="450" text-anchor="start" class="score">84.5% (S:100%)</text><rect x="150" y="480" width="500" height="30" fill="#eee" rx="5"/><rect x="150" y="480" width="377.15000000000003" height="30" fill="#22c55e" rx="5"/>
        <text x="140" y="500" text-anchor="end" class="row">shadowproxy66</text>
        <text x="660" y="500" text-anchor="start" class="score">75.4% (S:100%)</text><rect x="150" y="530" width="500" height="30" fill="#eee" rx="5"/><rect x="150" y="530" width="381.0" height="30" fill="#22c55e" rx="5"/>
        <text x="140" y="550" text-anchor="end" class="row">OutlineReleasedKey</text>
        <text x="660" y="550" text-anchor="start" class="score">76.2% (S:100%)</text><rect x="150" y="580" width="500" height="30" fill="#eee" rx="5"/><rect x="150" y="580" width="448.35" height="30" fill="#22c55e" rx="5"/>
        <text x="140" y="600" text-anchor="end" class="row">prrofile_purple</text>
        <text x="660" y="600" text-anchor="start" class="score">89.7% (S:100%)</text><rect x="150" y="630" width="500" height="30" fill="#eee" rx="5"/><rect x="150" y="630" width="477.04999999999995" height="30" fill="#22c55e" rx="5"/>
        <text x="140" y="650" text-anchor="end" class="row">proxy_shadosocks</text>
        <text x="660" y="650" text-anchor="start" class="score">95.4% (S:100%)</text><rect x="150" y="680" width="500" height="30" fill="#eee" rx="5"/><rect x="150" y="680" width="482.65" height="30" fill="#22c55e" rx="5"/>
        <text x="140" y="700" text-anchor="end" class="row">meli_proxyy</text>
        <text x="660" y="700" text-anchor="start" class="score">96.5% (S:100%)</text><rect x="150" y="730" width="500" height="30" fill="#eee" rx="5"/><rect x="150" y="730" width="498.9" height="30" fill="#22c55e" rx="5"/>
        <text x="140" y="750" text-anchor="end" class="row">DirectVPN</text>
        <text x="660" y="750" text-anchor="start" class="score">99.8% (S:100%)</text><rect x="150" y="780" width="500" height="30" fill="#eee" rx="5"/><rect x="150" y="780" width="450.45000000000005" height="30" fill="#22c55e" rx="5"/>
        <text x="140" y="800" text-anchor="end" class="row">VmessProtocol</text>
        <text x="660" y="800" text-anchor="start" class="score">90.1% (S:100%)</text><rect x="150" y="830" width="500" height="30" fill="#eee" rx="5"/><rect x="150" y="830" width="464.7" height="30" fill="#22c55e" rx="5"/>
        <text x="140" y="850" text-anchor="end" class="row">ViProxys</text>
        <text x="660" y="850" text-anchor="start" class="score">92.9% (S:100%)</text><rect x="150" y="880" width="500" height="30" fill="#eee" rx="5"/><rect x="150" y="880" width="449.90000000000003" height="30" fill="#22c55e" rx="5"/>
        <text x="140" y="900" text-anchor="end" class="row">heyatserver</text>
        <text x="660" y="900" text-anchor="start" class="score">90.0% (S:100%)</text><rect x="150" y="930" width="500" height="30" fill="#eee" rx="5"/><rect x="150" y="930" width="442.0" height="30" fill="#22c55e" rx="5"/>
        <text x="140" y="950" text-anchor="end" class="row">vpnfail_vless</text>
        <text x="660" y="950" text-anchor="start" class="score">88.4% (S:100%)</text><rect x="150" y="980" width="500" height="30" fill="#eee" rx="5"/><rect x="150" y="980" width="437.25" height="30" fill="#22c55e" rx="5"/>
        <text x="140" y="1000" text-anchor="end" class="row">DailyV2RY</text>
        <text x="660" y="1000" text-anchor="start" class="score">87.5% (S:100%)</text><rect x="150" y="1030" width="500" height="30" fill="#eee" rx="5"/><rect x="150" y="1030" width="75.0" height="30" fill="#ef4444" rx="5"/>
        <text x="140" y="1050" text-anchor="end" class="row">ShadowsocksM</text>
        <text x="660" y="1050" text-anchor="start" class="score">15.0% (S:0%)</text></svg>