<?xml version="1.0" encoding="UTF-8"?>
    <svg width="800" height="400" version="1.1" xmlns="http://www.w3.org/2000/svg">
    <style>
        .row { font: 14px Arial; fill: #64748b; }
        .score { font: bold 14px Arial; fill: #64748b; }
    </style>
    <text x="400" y="40" text-anchor="middle" font-size="20px" font-weight="bold" fill="#64748b">Channel Performance Overview</text><rect x="150" y="80" width="500" height="30" fill="#eee" rx="5"/><rect x="150" y="80" width="468.54999999999995" height="30" fill="#22c55e" rx="5"/>
        <text x="140" y="100" text-anchor="end" class="row">v2ray_free_conf</text>
        <text x="660" y="100" text-anchor="start" class="score">93.7% (S:100%)</text><rect x="150" y="130" width="500" height="30" fill="#eee" rx="5"/><rect x="150" y="130" width="455.05" height="30" fill="#22c55e" rx="5"/>
        <text x="140" y="150" text-anchor="end" class="row">configV2rayForFree</text>
        <text x="660" y="150" text-anchor="start" class="score">91.0% (S:100%)</text><rect x="150" y="180" width="500" height="30" fill="#eee" rx="5"/><rect x="150" y="180" width="0.0" height="30" fill="#ef4444" rx="5"/>
        <text x="140" y="200" text-anchor="end" class="row">PrivateVPNs</text>
        <text x="660" y="200" text-anchor="start" class="score">0.0% (S:0%)</text><rect x="150" y="230" width="500" height="30" fill="#eee" rx="5"/><rect x="150" y="230" width="470.7" height="30" fill="#22c55e" rx="5"/>
        <text x="140" y="250" text-anchor="end" class="row">freewireguard</text>
        <text x="660" y="250" text-anchor="start" class="score">94.1% (S:100%)</text><rect x="150" y="280" width="500" height="30" fill="#eee" rx="5"/><rect x="150" y="280" width="0.0" height="30" fill="#ef4444" rx="5"/>
        <text x="140" y="300" text-anchor="end" class="row">configs.txt</text>
        <text x="660" y="300" text-anchor="start" class="score">0.0% (S:0%)</text><rect x="150" y="330" width="500" height="30" fill="#eee" rx="5"/><rect x="150" y="330" width="474.15" height="30" fill="#22c55e" rx="5"/>
        <text x="140" y="350" text-anchor="end" class="row">Gozargah_Sub</text>
        <text x="660" y="350" text-anchor="start" class="score">94.8% (S:100%)</text></svg>