<svg width="900" height="600" xmlns="http://www.w3.org/2000/svg">
    <defs>
        <linearGradient id="score-gradient" x1="0%" y1="0%" x2="100%" y1="0%">
            <stop offset="0%" style="stop-color:#ef4444"/>
            <stop offset="100%" style="stop-color:#22c55e"/>
        </linearGradient>
    </defs>
    <style>
        .title { font: bold 20px sans-serif; fill: #1f2937; }
        .gauge-title { font: bold 14px sans-serif; fill: #1f2937; }
        .gauge-value { font: bold 18px sans-serif; fill: #1f2937; }
        .metric { font: 12px sans-serif; fill: #6b7280; }
    </style>
        <circle cx="160.0" cy="140.0" r="60.0" fill="none" stroke="#e5e7eb" stroke-width="10"/>
        <path d="M 160.0 140.0 L 100.0 140.0 A 60.0 60.0 0 0 1 153.64000000000001 146.35999999999999 Z" fill="url(#score-gradient)" opacity="0.8"/>
        <text x="160.0" y="130.0" text-anchor="middle" class="gauge-title">v2ray_free_conf</text>
        <text x="160.0" y="155.0" text-anchor="middle" class="gauge-value">89.4%</text>
        <text x="160.0" y="175.0" text-anchor="middle" class="metric">Success: 100.0%</text>
        
        <circle cx="324.0" cy="140.0" r="60.0" fill="none" stroke="#e5e7eb" stroke-width="10"/>
        <path d="M 324.0 140.0 L 264.0 140.0 A 60.0 60.0 0 0 1 273.0 191.0 Z" fill="url(#score-gradient)" opacity="0.8"/>
        <text x="324.0" y="130.0" text-anchor="middle" class="gauge-title">v2rayvpno</text>
        <text x="324.0" y="155.0" text-anchor="middle" class="gauge-value">15.0%</text>
        <text x="324.0" y="175.0" text-anchor="middle" class="metric">Success: 0.0%</text>
        
        <circle cx="488.0" cy="140.0" r="60.0" fill="none" stroke="#e5e7eb" stroke-width="10"/>
        <path d="M 488.0 140.0 L 428.0 140.0 A 60.0 60.0 0 0 1 428.0 200.0 Z" fill="url(#score-gradient)" opacity="0.8"/>
        <text x="488.0" y="130.0" text-anchor="middle" class="gauge-title">ZibaNabz</text>
        <text x="488.0" y="155.0" text-anchor="middle" class="gauge-value">0.0%</text>
        <text x="488.0" y="175.0" text-anchor="middle" class="metric">Success: 0.0%</text>
        
        <circle cx="652.0" cy="140.0" r="60.0" fill="none" stroke="#e5e7eb" stroke-width="10"/>
        <path d="M 652.0 140.0 L 592.0 140.0 A 60.0 60.0 0 0 1 644.848 147.15200000000002 Z" fill="url(#score-gradient)" opacity="0.8"/>
        <text x="652.0" y="130.0" text-anchor="middle" class="gauge-title">configV2rayForFree</text>
        <text x="652.0" y="155.0" text-anchor="middle" class="gauge-value">88.1%</text>
        <text x="652.0" y="175.0" text-anchor="middle" class="metric">Success: 100.0%</text>
        
        <circle cx="816.0" cy="140.0" r="60.0" fill="none" stroke="#e5e7eb" stroke-width="10"/>
        <path d="M 816.0 140.0 L 756.0 140.0 A 60.0 60.0 0 0 1 765.0 191.0 Z" fill="url(#score-gradient)" opacity="0.8"/>
        <text x="816.0" y="130.0" text-anchor="middle" class="gauge-title">v2rayngvpn</text>
        <text x="816.0" y="155.0" text-anchor="middle" class="gauge-value">15.0%</text>
        <text x="816.0" y="175.0" text-anchor="middle" class="metric">Success: 0.0%</text>
        
        <circle cx="160.0" cy="320.0" r="60.0" fill="none" stroke="#e5e7eb" stroke-width="10"/>
        <path d="M 160.0 320.0 L 100.0 320.0 A 60.0 60.0 0 0 1 109.0 371.0 Z" fill="url(#score-gradient)" opacity="0.8"/>
        <text x="160.0" y="310.0" text-anchor="middle" class="gauge-title">SvnV2ray</text>
        <text x="160.0" y="335.0" text-anchor="middle" class="gauge-value">15.0%</text>
        <text x="160.0" y="355.0" text-anchor="middle" class="metric">Success: 0.0%</text>
        
        <circle cx="324.0" cy="320.0" r="60.0" fill="none" stroke="#e5e7eb" stroke-width="10"/>
        <path d="M 324.0 320.0 L 264.0 320.0 A 60.0 60.0 0 0 1 273.0 371.0 Z" fill="url(#score-gradient)" opacity="0.8"/>
        <text x="324.0" y="310.0" text-anchor="middle" class="gauge-title">RadixVPN</text>
        <text x="324.0" y="335.0" text-anchor="middle" class="gauge-value">15.0%</text>
        <text x="324.0" y="355.0" text-anchor="middle" class="metric">Success: 0.0%</text>
        
        <circle cx="488.0" cy="320.0" r="60.0" fill="none" stroke="#e5e7eb" stroke-width="10"/>
        <path d="M 488.0 320.0 L 428.0 320.0 A 60.0 60.0 0 0 1 482.65999999999997 325.34000000000003 Z" fill="url(#score-gradient)" opacity="0.8"/>
        <text x="488.0" y="310.0" text-anchor="middle" class="gauge-title">PrivateVPNs</text>
        <text x="488.0" y="335.0" text-anchor="middle" class="gauge-value">91.1%</text>
        <text x="488.0" y="355.0" text-anchor="middle" class="metric">Success: 100.0%</text>
        
        <circle cx="652.0" cy="320.0" r="60.0" fill="none" stroke="#e5e7eb" stroke-width="10"/>
        <path d="M 652.0 320.0 L 592.0 320.0 A 60.0 60.0 0 0 1 601.0 371.0 Z" fill="url(#score-gradient)" opacity="0.8"/>
        <text x="652.0" y="310.0" text-anchor="middle" class="gauge-title">VlessConfig</text>
        <text x="652.0" y="335.0" text-anchor="middle" class="gauge-value">15.0%</text>
        <text x="652.0" y="355.0" text-anchor="middle" class="metric">Success: 0.0%</text>
        
        <circle cx="816.0" cy="320.0" r="60.0" fill="none" stroke="#e5e7eb" stroke-width="10"/>
        <path d="M 816.0 320.0 L 756.0 320.0 A 60.0 60.0 0 0 1 813.198 322.802 Z" fill="url(#score-gradient)" opacity="0.8"/>
        <text x="816.0" y="310.0" text-anchor="middle" class="gauge-title">freewireguard</text>
        <text x="816.0" y="335.0" text-anchor="middle" class="gauge-value">95.3%</text>
        <text x="816.0" y="355.0" text-anchor="middle" class="metric">Success: 100.0%</text>
        <text x="450.0" y="40" text-anchor="middle" class="title">Channel Performance Dashboard</text>
    </svg>