<?xml version="1.0" encoding="UTF-8"?>
    <svg width="800" height="700" version="1.1" xmlns="http://www.w3.org/2000/svg">
    <style>
        .row { font: 14px Arial; fill: #64748b; }
        .score { font: bold 14px Arial; fill: #64748b; }
    </style>
    <text x="400" y="40" text-anchor="middle" font-size="20px" font-weight="bold" fill="#64748b">Channel Performance Overview</text><rect x="150" y="80" width="500" height="30" fill="#eee" rx="5"/><rect x="150" y="80" width="465.09999999999997" height="30" fill="#22c55e" rx="5"/>
        <text x="140" y="100" text-anchor="end" class="row">v2ray_free_conf</text>
        <text x="660" y="100" text-anchor="start" class="score">93.0% (S:100%)</text><rect x="150" y="130" width="500" height="30" fill="#eee" rx="5"/><rect x="150" y="130" width="440.90000000000003" height="30" fill="#22c55e" rx="5"/>
        <text x="140" y="150" text-anchor="end" class="row">PrivateVPNs</text>
        <text x="660" y="150" text-anchor="start" class="score">88.2% (S:100%)</text><rect x="150" y="180" width="500" height="30" fill="#eee" rx="5"/><rect x="150" y="180" width="498.84999999999997" height="30" fill="#22c55e" rx="5"/>
        <text x="140" y="200" text-anchor="end" class="row">wireguard_configs.txt</text>
        <text x="660" y="200" text-anchor="start" class="score">99.8% (S:100%)</text><rect x="150" y="230" width="500" height="30" fill="#eee" rx="5"/><rect x="150" y="230" width="0.0" height="30" fill="#ef4444" rx="5"/>
        <text x="140" y="250" text-anchor="end" class="row">configs.txt</text>
        <text x="660" y="250" text-anchor="start" class="score">0.0% (S:0%)</text><rect x="150" y="280" width="500" height="30" fill="#eee" rx="5"/><rect x="150" y="280" width="75.0" height="30" fill="#ef4444" rx="5"/>
        <text x="140" y="300" text-anchor="end" class="row">v2Source</text>
        <text x="660" y="300" text-anchor="start" class="score">15.0% (S:0%)</text><rect x="150" y="330" width="500" height="30" fill="#eee" rx="5"/><rect x="150" y="330" width="396.9" height="30" fill="#22c55e" rx="5"/>
        <text x="140" y="350" text-anchor="end" class="row">IP_CF_Config</text>
        <text x="660" y="350" text-anchor="start" class="score">79.4% (S:100%)</text><rect x="150" y="380" width="500" height="30" fill="#eee" rx="5"/><rect x="150" y="380" width="75.0" height="30" fill="#ef4444" rx="5"/>
        <text x="140" y="400" text-anchor="end" class="row">oneclickvpnkeys</text>
        <text x="660" y="400" text-anchor="start" class="score">15.0% (S:0%)</text><rect x="150" y="430" width="500" height="30" fill="#eee" rx="5"/><rect x="150" y="430" width="379.75" height="30" fill="#22c55e" rx="5"/>
        <text x="140" y="450" text-anchor="end" class="row">ShadowProxy66</text>
        <text x="660" y="450" text-anchor="start" class="score">76.0% (S:100%)</text><rect x="150" y="480" width="500" height="30" fill="#eee" rx="5"/><rect x="150" y="480" width="0.0" height="30" fill="#ef4444" rx="5"/>
        <text x="140" y="500" text-anchor="end" class="row">OutlineReleasedKey</text>
        <text x="660" y="500" text-anchor="start" class="score">0.0% (S:0%)</text><rect x="150" y="530" width="500" height="30" fill="#eee" rx="5"/><rect x="150" y="530" width="75.0" height="30" fill="#ef4444" rx="5"/>
        <text x="140" y="550" text-anchor="end" class="row">GetConfigIR</text>
        <text x="660" y="550" text-anchor="start" class="score">15.0% (S:0%)</text><rect x="150" y="580" width="500" height="30" fill="#eee" rx="5"/><rect x="150" y="580" width="380.55" height="30" fill="#22c55e" rx="5"/>
        <text x="140" y="600" text-anchor="end" class="row">prrofile_purple</text>
        <text x="660" y="600" text-anchor="start" class="score">76.1% (S:100%)</text><rect x="150" y="630" width="500" height="30" fill="#eee" rx="5"/><rect x="150" y="630" width="0.0" height="30" fill="#ef4444" rx="5"/>
        <text x="140" y="650" text-anchor="end" class="row">proxy_shadosocks</text>
        <text x="660" y="650" text-anchor="start" class="score">0.0% (S:0%)</text></svg>