<?xml version="1.0" encoding="UTF-8"?>
    <svg width="800" height="750" version="1.1" xmlns="http://www.w3.org/2000/svg">
    <style>
        .row { font: 14px Arial; fill: #64748b; }
        .score { font: bold 14px Arial; fill: #64748b; }
    </style>
    <text x="400" y="40" text-anchor="middle" font-size="20px" font-weight="bold" fill="#64748b">Channel Performance Overview</text><rect x="150" y="80" width="500" height="30" fill="#eee" rx="5"/><rect x="150" y="80" width="499.35" height="30" fill="#22c55e" rx="5"/>
        <text x="140" y="100" text-anchor="end" class="row">wireguard_configs.txt</text>
        <text x="660" y="100" text-anchor="start" class="score">99.9% (S:100%)</text><rect x="150" y="130" width="500" height="30" fill="#eee" rx="5"/><rect x="150" y="130" width="75.0" height="30" fill="#ef4444" rx="5"/>
        <text x="140" y="150" text-anchor="end" class="row">configs.txt</text>
        <text x="660" y="150" text-anchor="start" class="score">15.0% (S:0%)</text><rect x="150" y="180" width="500" height="30" fill="#eee" rx="5"/><rect x="150" y="180" width="405.85" height="30" fill="#22c55e" rx="5"/>
        <text x="140" y="200" text-anchor="end" class="row">Gozargah_Sub</text>
        <text x="660" y="200" text-anchor="start" class="score">81.2% (S:100%)</text><rect x="150" y="230" width="500" height="30" fill="#eee" rx="5"/><rect x="150" y="230" width="439.4" height="30" fill="#22c55e" rx="5"/>
        <text x="140" y="250" text-anchor="end" class="row">v2ray_free_conf</text>
        <text x="660" y="250" text-anchor="start" class="score">87.9% (S:100%)</text><rect x="150" y="280" width="500" height="30" fill="#eee" rx="5"/><rect x="150" y="280" width="458.84999999999997" height="30" fill="#22c55e" rx="5"/>
        <text x="140" y="300" text-anchor="end" class="row">PrivateVPNs</text>
        <text x="660" y="300" text-anchor="start" class="score">91.8% (S:100%)</text><rect x="150" y="330" width="500" height="30" fill="#eee" rx="5"/><rect x="150" y="330" width="376.25" height="30" fill="#22c55e" rx="5"/>
        <text x="140" y="350" text-anchor="end" class="row">IP_CF_Config</text>
        <text x="660" y="350" text-anchor="start" class="score">75.2% (S:100%)</text><rect x="150" y="380" width="500" height="30" fill="#eee" rx="5"/><rect x="150" y="380" width="411.75" height="30" fill="#22c55e" rx="5"/>
        <text x="140" y="400" text-anchor="end" class="row">OutlineReleasedKey</text>
        <text x="660" y="400" text-anchor="start" class="score">82.3% (S:100%)</text><rect x="150" y="430" width="500" height="30" fill="#eee" rx="5"/><rect x="150" y="430" width="377.15000000000003" height="30" fill="#22c55e" rx="5"/>
        <text x="140" y="450" text-anchor="end" class="row">prrofile_purple</text>
        <text x="660" y="450" text-anchor="start" class="score">75.4% (S:100%)</text><rect x="150" y="480" width="500" height="30" fill="#eee" rx="5"/><rect x="150" y="480" width="75.0" height="30" fill="#ef4444" rx="5"/>
        <text x="140" y="500" text-anchor="end" class="row">proxy_shadosocks</text>
        <text x="660" y="500" text-anchor="start" class="score">15.0% (S:0%)</text><rect x="150" y="530" width="500" height="30" fill="#eee" rx="5"/><rect x="150" y="530" width="391.1" height="30" fill="#22c55e" rx="5"/>
        <text x="140" y="550" text-anchor="end" class="row">meli_proxyy</text>
        <text x="660" y="550" text-anchor="start" class="score">78.2% (S:100%)</text><rect x="150" y="580" width="500" height="30" fill="#eee" rx="5"/><rect x="150" y="580" width="498.75" height="30" fill="#22c55e" rx="5"/>
        <text x="140" y="600" text-anchor="end" class="row">DirectVPN</text>
        <text x="660" y="600" text-anchor="start" class="score">99.8% (S:100%)</text><rect x="150" y="630" width="500" height="30" fill="#eee" rx="5"/><rect x="150" y="630" width="399.5" height="30" fill="#22c55e" rx="5"/>
        <text x="140" y="650" text-anchor="end" class="row">VmessProtocol</text>
        <text x="660" y="650" text-anchor="start" class="score">79.9% (S:100%)</text><rect x="150" y="680" width="500" height="30" fill="#eee" rx="5"/><rect x="150" y="680" width="411.59999999999997" height="30" fill="#22c55e" rx="5"/>
        <text x="140" y="700" text-anchor="end" class="row">V2ray_Alpha</text>
        <text x="660" y="700" text-anchor="start" class="score">82.3% (S:100%)</text></svg>